<svg width="25" height="25" viewBox="0 0 25 25" fill="none" xmlns="http://www.w3.org/2000/svg">
<g opacity="0.5">
<path d="M7.03516 9.19531L9.97718 10.9347C11.6924 11.9488 12.378 11.9488 14.0932 10.9347L17.0352 9.19531" stroke="#57575B" stroke-width="2" stroke-linecap="round" stroke-linejoin="round"/>
<path d="M2.05092 14.1709C2.1163 17.2364 2.14898 18.7692 3.28011 19.9046C4.41124 21.0401 5.98549 21.0796 9.13399 21.1587C11.0745 21.2075 12.9959 21.2075 14.9364 21.1587C18.0849 21.0796 19.6591 21.0401 20.7902 19.9046C21.9214 18.7692 21.9541 17.2364 22.0194 14.1709C22.0405 13.1852 22.0405 12.2053 22.0194 11.2197C21.9541 8.15411 21.9214 6.62134 20.7902 5.48591C19.6591 4.35048 18.0849 4.31093 14.9364 4.23182C12.9959 4.18306 11.0745 4.18306 9.13398 4.23181C5.98549 4.31091 4.41124 4.35046 3.28011 5.4859C2.14898 6.62133 2.11629 8.1541 2.05092 11.2196C2.0299 12.2053 2.0299 13.1852 2.05092 14.1709Z" stroke="#57575B" stroke-width="2" stroke-linejoin="round"/>
</g>
</svg>
