<svg width="25" height="25" viewBox="0 0 25 25" fill="none" xmlns="http://www.w3.org/2000/svg">
<g opacity="0.5">
<path d="M6.61273 15.9816C5.19796 16.824 1.48852 18.5441 3.74782 20.6966C4.85147 21.748 6.08065 22.5 7.62603 22.5H16.4443C17.9897 22.5 19.2189 21.748 20.3225 20.6966C22.5818 18.5441 18.8724 16.824 17.4576 15.9816C14.14 14.0061 9.93035 14.0061 6.61273 15.9816Z" stroke="#57575B" stroke-width="2" stroke-linecap="round" stroke-linejoin="round"/>
<path d="M16.5352 7C16.5352 9.48528 14.5205 11.5 12.0352 11.5C9.54988 11.5 7.53516 9.48528 7.53516 7C7.53516 4.51472 9.54988 2.5 12.0352 2.5C14.5205 2.5 16.5352 4.51472 16.5352 7Z" stroke="#57575B" stroke-width="2"/>
</g>
</svg>
